<svg width="98" height="92" viewBox="0 0 98 92" fill="none" xmlns="http://www.w3.org/2000/svg">
<path d="M53.7323 3.0931L64.5107 24.7031C65.288 26.2752 66.8044 27.3691 68.5633 27.6268L92.7068 31.1437C94.1262 31.3428 95.4064 32.0896 96.2641 33.2188C97.1217 34.348 97.4862 35.7666 97.2768 37.1606C97.1098 38.3161 96.565 39.3868 95.7248 40.2114L78.2207 57.1604C76.9387 58.3587 76.3555 60.1101 76.6686 61.8214L80.98 85.6771C81.4561 88.531 79.5521 91.2444 76.6686 91.8212C75.4886 92.0065 74.2792 91.8133 73.2196 91.2703L51.6629 80.0416C50.0665 79.2347 48.1719 79.2347 46.5755 80.0416L25.0188 91.2703C22.3635 92.6825 19.0462 91.7158 17.6033 89.1093C17.0566 88.066 16.8604 86.8793 17.0428 85.7195L21.3542 61.8638C21.6673 60.1525 21.0841 58.4011 19.8021 57.2028L2.29805 40.2538C1.27115 39.2585 0.693044 37.9001 0.693044 36.4827C0.693044 35.0652 1.27115 33.7068 2.29805 32.7115C3.12531 31.8697 4.22068 31.3315 5.40222 31.1861L29.5457 27.6692C31.3047 27.4115 32.8211 26.3175 33.5984 24.7455L43.9887 3.0931C44.8973 1.24616 46.8166 0.087901 48.9036 0.127024H49.5503C51.3664 0.353453 52.9414 1.47049 53.7323 3.0931Z" fill="#EAC500"/>
<path d="M49.033 79.406C48.0887 79.3998 47.2008 79.7108 46.3607 80.1345L24.872 91.3357C22.2947 92.6343 19.0221 91.5908 17.6033 89.1093C17.0541 88.0821 16.8575 86.9079 17.0428 85.7619L21.3542 61.9485C21.6437 60.2261 21.0651 58.4727 19.8021 57.2452L2.25494 40.2962C0.138979 38.2121 0.138979 34.8379 2.25494 32.7539C3.08259 31.9361 4.15567 31.4014 5.31599 31.2285L29.5457 27.6692C31.4129 27.3982 32.7474 26.3658 33.5984 24.7455L44.1242 2.84493C44.9264 1.06335 47.6233 -0.167825 49.0761 0.127024C49.033 1.56769 49.033 78.4315 49.033 79.406Z" fill="#EAC500"/>
</svg>
