<svg width="92" height="88" viewBox="0 0 92 88" fill="none" xmlns="http://www.w3.org/2000/svg">
<path d="M46.5537 4.10892L57.7309 26.5699C58.7561 28.6677 60.7516 30.1115 63.0461 30.4594L63.0686 30.4628L88.1311 34.0836L88.1567 34.0872C88.3291 34.1107 88.4721 34.1995 88.5613 34.3167C88.6477 34.4303 88.6802 34.5642 88.6627 34.6911C88.6467 34.788 88.5979 34.8849 88.5138 34.964C88.5016 34.9755 88.4895 34.987 88.4775 34.9986L70.3383 52.5734C68.6398 54.1889 67.8637 56.5515 68.2966 58.8655L72.6584 83.5826C72.6857 83.82 72.5278 84.1015 72.1964 84.1696C72.0227 84.1913 71.8476 84.1628 71.6937 84.0902L49.3992 72.438C47.3291 71.3258 44.8326 71.326 42.7626 72.4387L20.3275 84.1819C19.9965 84.3414 19.622 84.2052 19.4647 83.9424C19.4133 83.8353 19.3963 83.7189 19.4129 83.6065L23.7823 58.8467L23.7823 58.8467L23.7846 58.8331C24.1787 56.5431 23.416 54.2179 21.7627 52.5982L21.7413 52.5774L3.49013 35.021C3.29297 34.8125 3.28252 34.5106 3.45878 34.2922C3.59316 34.1868 3.75399 34.1105 3.92983 34.0731L28.9194 30.4628C28.9393 30.4599 28.9592 30.4568 28.9791 30.4536C31.2461 30.083 33.2146 28.6546 34.2483 26.5877L34.2511 26.5819L45.4483 4.08102L45.4629 4.05119C45.5192 3.93524 45.6284 3.83173 45.7801 3.78105C45.9331 3.72996 46.101 3.74278 46.2412 3.81317L46.2469 3.81601C46.3849 3.885 46.4894 3.98991 46.5537 4.10892Z" stroke="#EAC500" stroke-width="6.5" stroke-linecap="round" stroke-linejoin="round"/>
</svg>
